<svg xmlns="http://www.w3.org/2000/svg" viewBox="0 0 100 100">
  <g fill="#646cff">
    <path d="M50 0C22.386 0 0 22.386 0 50s22.386 50 50 50 50-22.386 50-50S77.614 0 50 0zm0 95C26.748 95 5 73.252 5 50S26.748 5 50 5s45 21.748 45 45-21.748 45-45 45z"/>
    <path d="M50 12.5c-20.5 0-37.5 17-37.5 37.5S29.5 87.5 50 87.5 87.5 70.5 87.5 50 70.5 12.5 50 12.5zm0 70c-17.5 0-32.5-15-32.5-32.5S32.5 17.5 50 17.5 82.5 32.5 82.5 50 67.5 82.5 50 82.5z"/>
  </g>
  <g fill="#fff">
    <path d="M50 20c-16.5 0-30 13.5-30 30s13.5 30 30 30 30-13.5 30-30-13.5-30-30-30zm0 55c-13.75 0-25-11.25-25-25S36.25 25 50 25s25 11.25 25 25-11.25 25-25 25z"/>
  </g>
</svg>